<?xml version="1.0" encoding="UTF-8"?>
<svg id="Layer_1" data-name="Layer 1" xmlns="http://www.w3.org/2000/svg" viewBox="0 0 267.91 304.49">
  <defs>
    <style>
      .cls-1 {
        fill: #ee1f42;
      }
    </style>
  </defs>
  <path class="cls-1" d="M0,283.49c1.1,0,8.2-59.93,8.2-59.93,33.74,0,59.6,26.61,59.6,60.29l-67.79-.37Z"/>
  <path class="cls-1" d="M12.1,206.7c2.42-11.42,6.24-26.89,12.39-44.75,6.84-19.86,16.24-46.64,36.7-76.25,9.19-13.3,22.35-32.07,45.61-49.88,21.62-16.56,40.88-23.82,46.21-25.74,11.61-4.18,20.72-5.96,28.26-7.4,7.07-1.35,38.74-3.78,65.2-2.14,7.42.46,18.17,3.56,18.17,3.56,0,0-10.32,9.6-23.52,19.24-11.72,8.56-29.81,27.81-33.14,31.36-28,29.78-31.41,35.9-52.38,73.04-6.51,11.53-15.38,32.26-15.38,32.26,0,0,3.6,3.9,7.9,8,7.85,7.48,9.98,16.98,11.76,24.94,1.4,6.25,4,18.62-.71,33.49-1.17,3.68-5.54,16.2-17.1,26.37-4.47,3.93-8.56,6.18-16.75,10.69-6.33,3.48-9.64,4.76-21.73,10.33-8.7,4.01-18.88,8.91-18.88,8.91h0s-3.46-31.43-13.86-48.08c-6.91-11.06-21.98-23.75-58.75-27.97Z"/>
  <path class="cls-1" d="M158.03,157.76s17.8-6.89,40.34-17.63c5.26-2.5,32.23-15.35,47.17-41.71,10.34-18.24,15.21-35.04,15.21-35.04,0,0,2.41.1,5.27,16.67,1.11,6.42,3.43,22.53.37,39.47-8.26,45.71-53.9,82.27-74.23,98.56-3.96,3.17-21.69,16.59-21.69,16.59,0,0,1.9-7.31,4.07-17.59.28-1.34,3.25-16.19-1.49-31.4-5.53-17.78-15.02-27.93-15.02-27.93Z"/>
</svg>